Coordinates
version=1
nRows=65
nColumns=12
inDegrees=yes

Units are S.I. units (second, meters, Newtons, ...)
Angles are in degrees

endheader
time	SC_y	SC_z	SC_x	AC_y	AC_z	AC_x	GH_y	GH_z	GH_yy	EL_x	PS_y
       0.0              -50.22          6.152          33.03          65.22          6.571          19.63         -90.59          -6.99          86.31          113.2          120.1
   0.02681              -50.22          6.154          33.03          65.21          6.568          19.63         -90.58          -6.98          86.31          113.2          120.1
   0.05362              -50.21          6.155          33.03          65.21          6.565          19.62         -90.57          -6.97          86.31          113.2          120.1
   0.08043              -50.21          6.157          33.02          65.21          6.562          19.62         -90.56          -6.96          86.31          113.2          120.1
    0.1072               -50.2          6.159          33.02          65.21          6.559          19.61         -90.55         -6.948          86.31          113.1          120.1
    0.1341              -50.19          6.161          33.02          65.21          6.555           19.6         -90.54         -6.936          86.31          113.1          120.1
    0.1609              -50.19          6.163          33.01          65.21          6.551           19.6         -90.53         -6.923          86.31          113.1          120.1
    0.1877              -50.18          6.165          33.01           65.2          6.547          19.59         -90.52         -6.909          86.31          113.1          120.1
    0.2145              -50.17          6.168           33.0           65.2          6.542          19.58          -90.5         -6.894           86.3          113.1          120.1
    0.2413              -50.16           6.17           33.0           65.2          6.537          19.57         -90.49         -6.878           86.3          113.1          120.1
    0.2681              -50.15          6.173          32.99           65.2          6.532          19.56         -90.48         -6.861           86.3          113.1          120.1
    0.2949              -50.14          6.176          32.98          65.19          6.526          19.55         -90.46         -6.843           86.3          113.1          120.1
    0.3217              -50.13          6.179          32.98          65.19           6.52          19.54         -90.44         -6.823           86.3          113.1          120.1
    0.3485              -50.12          6.182          32.97          65.19          6.514          19.53         -90.42         -6.802           86.3          113.1          120.1
    0.3753              -50.11          6.186          32.96          65.18          6.507          19.52          -90.4         -6.778          86.29          113.1          120.1
    0.4022              -50.09           6.19          32.95          65.18          6.499          19.51         -90.38         -6.753          86.29          113.1          120.1
     0.429              -50.08          6.194          32.95          65.18          6.491          19.49         -90.35         -6.726          86.29          113.1          120.1
    0.4558              -50.06          6.199          32.94          65.17          6.481          19.48         -90.33         -6.696          86.29          113.1          120.1
    0.4826              -50.04          6.204          32.92          65.17          6.472          19.46          -90.3         -6.663          86.28          113.1          120.1
    0.5094              -50.02           6.21          32.91          65.16          6.461          19.44         -90.27         -6.628          86.28          113.1          120.1
    0.5362               -50.0          6.216           32.9          65.16          6.449          19.42         -90.23         -6.589          86.28          113.1          120.1
     0.563              -49.98          6.223          32.89          65.15          6.436           19.4         -90.19         -6.546          86.27          113.0          120.1
    0.5898              -49.95          6.231          32.87          65.14          6.421          19.37         -90.15         -6.498          86.27          113.0          120.1
    0.6166              -49.92          6.239          32.85          65.13          6.405          19.34          -90.1         -6.445          86.26          113.0          120.1
    0.6435              -49.89          6.248          32.83          65.13          6.387          19.31         -90.05         -6.387          86.26          113.0          120.1
    0.6703              -49.86          6.259          32.81          65.12          6.367          19.28         -89.99         -6.321          86.25          113.0          120.1
    0.6971              -49.82          6.271          32.79          65.11          6.345          19.24         -89.93         -6.248          86.25          113.0          120.1
    0.7239              -49.77          6.284          32.76          65.09          6.319           19.2         -89.86         -6.166          86.24          112.9          120.1
    0.7507              -49.72          6.299          32.73          65.08          6.291          19.15         -89.77         -6.073          86.23          112.9          120.1
    0.7775              -49.66          6.315          32.69          65.06          6.259          19.09         -89.68         -5.967          86.22          112.9          120.1
    0.8043               -49.6          6.335          32.65          65.05          6.222          19.03         -89.57         -5.846          86.21          112.8          120.1
    0.8311              -49.52          6.357          32.61          65.03          6.179          18.95         -89.45         -5.708           86.2          112.8          120.1
    0.8579              -49.43          6.382          32.55           65.0          6.131          18.87         -89.31         -5.548          86.18          112.8          120.1
    0.8848              -49.33          6.412          32.49          64.97          6.074          18.77         -89.14         -5.362          86.17          112.7          120.1
    0.9116              -49.21          6.447          32.42          64.94          6.007          18.66         -88.95         -5.145          86.15          112.7          120.1
    0.9384              -49.07          6.487          32.34           64.9          5.929          18.52         -88.72         -4.889          86.13          112.6          120.1
    0.9652               -48.9          6.536          32.24          64.86          5.836          18.36         -88.45         -4.584           86.1          112.5          120.1
     0.992               -48.7          6.594          32.11          64.81          5.724          18.17         -88.12         -4.219          86.07          112.4          120.0
     1.019              -48.46          6.665          31.97          64.74          5.589          17.93         -87.73         -3.778          86.03          112.3          120.0
     1.046              -48.16          6.751          31.79          64.66          5.425          17.65         -87.25         -3.238          85.98          112.1          120.0
     1.072               -47.8          6.857          31.57          64.56          5.221           17.3         -86.66         -2.572          85.92          112.0          120.0
     1.099              -47.34          6.989          31.29          64.44          4.967          16.86         -85.92         -1.742          85.85          111.7          120.0
     1.126              -46.77          7.156          30.95          64.28          4.648           16.3         -84.99        -0.6966          85.76          111.4          119.9
     1.153              -46.04          7.368           30.5          64.09          4.241           15.6         -83.81         0.6328          85.64          111.1          119.9
      1.18               -45.1           7.64          29.94          63.84          3.721           14.7         -82.29          2.334          85.49          110.6          119.8
     1.206              -43.91          7.988          29.22          63.51          3.054          13.55         -80.35          4.518           85.3          110.0          119.8
     1.233              -42.38          8.433          28.29           63.1          2.201          12.07         -77.87          7.307          85.05          109.3          119.7
      1.26              -40.45          8.993          27.13          62.58          1.129          10.22         -74.75          10.81          84.74          108.3          119.6
     1.287               -38.1          9.674          25.71          61.95        -0.1773          7.955         -70.95          15.09          84.36          107.1          119.4
     1.314              -35.38          10.46          24.07          61.22         -1.692          5.335         -66.54          20.04          83.92          105.8          119.3
     1.341              -32.44          11.32          22.29          60.42         -3.331          2.498         -61.77          25.41          83.45          104.3          119.1
     1.367               -29.5          12.18          20.51          59.63         -4.971        -0.3392         -56.99          30.77          82.98          102.8          118.9
     1.394              -26.78          12.97          18.86           58.9         -6.485         -2.959         -52.59          35.72          82.54          101.5          118.8
     1.421              -24.43          13.65          17.44          58.26         -7.791          -5.22         -48.78           40.0          82.16          100.3          118.6
     1.448              -22.51          14.21          16.28          57.74         -8.864         -7.075         -45.66          43.51          81.85          99.37          118.5
     1.475              -20.98          14.65          15.36          57.33         -9.716          -8.55         -43.18          46.29           81.6          98.61          118.4
     1.501              -19.78           15.0          14.63          57.01         -10.38         -9.705         -41.24          48.48          81.41          98.01          118.3
     1.528              -18.84          15.27          14.07          56.76          -10.9          -10.6         -39.72          50.18          81.26          97.55          118.3
     1.555              -18.11          15.48          13.63          56.56         -11.31         -11.31         -38.54          51.51          81.14          97.18          118.2
     1.582              -17.54          15.65          13.28          56.41         -11.63         -11.86         -37.61          52.55          81.05           96.9          118.2
     1.609              -17.08          15.78           13.0          56.28         -11.88          -12.3         -36.87          53.39          80.98          96.67          118.2
     1.635              -16.72          15.89          12.78          56.18         -12.09         -12.65         -36.28          54.05          80.92          96.49          118.2
     1.662              -16.42          15.98           12.6           56.1         -12.25         -12.94          -35.8          54.59          80.87          96.34          118.1
     1.689              -16.18          16.05          12.46          56.04         -12.39         -13.17         -35.41          55.03          80.83          96.22          118.1
     1.716              -15.98          16.11          12.34          55.99          -12.5         -13.36         -35.08           55.4           80.8          96.12          118.1
